<?xml version="1.0" encoding="UTF-8"?>
<svg version="1.1" xmlns="http://www.w3.org/2000/svg" width="1024" height="1024">
<path d="M0 0 C337.92 0 675.84 0 1024 0 C1024 337.92 1024 675.84 1024 1024 C686.08 1024 348.16 1024 0 1024 C0 686.08 0 348.16 0 0 Z " fill="#FEFEFE" transform="translate(0,0)"/>
<path d="M0 0 C2.39030022 -0.00389809 4.78059976 -0.008235 7.17089844 -0.01298523 C12.14276392 -0.02038789 17.11455829 -0.02019732 22.08642578 -0.01489258 C28.43538956 -0.00906887 34.78406436 -0.02612782 41.13298035 -0.04923725 C46.05395182 -0.06400217 50.97485381 -0.06484315 55.89584351 -0.06172752 C58.2368528 -0.06223812 60.57786625 -0.06742638 62.91885376 -0.07753944 C66.19088433 -0.08995698 69.4623526 -0.08308296 72.734375 -0.0715332 C73.68420761 -0.07917694 74.63404022 -0.08682068 75.61265564 -0.09469604 C85.94848352 -0.01456978 95.86193522 2.21778831 103.6875 9.30078125 C112.83194486 19.89572426 114.56277689 28.67446498 113.87402344 42.22753906 C113.46389083 46.78623813 111.82139706 50.31264316 109.6875 54.30078125 C109.16285156 55.39390625 108.63820313 56.48703125 108.09765625 57.61328125 C103.58017859 67.0004886 98.53990358 76.10260956 93.53955078 85.23828125 C89.79554093 92.12630631 86.35020874 99.09227679 83.07275391 106.21142578 C79.71755275 113.41815963 75.91284811 120.35108029 72.06713867 127.30541992 C68.72508062 133.35945396 65.54021583 139.4630656 62.48852539 145.66772461 C60.26600466 150.17726275 57.94520798 154.62390134 55.5625 159.05078125 C53.24713208 163.35320212 50.97824574 167.67062133 48.8125 172.05078125 C43.8585868 182.05258433 38.57319857 191.88899756 33.32421875 201.73828125 C29.76119789 208.42964053 26.24118068 215.13293923 22.875 221.92578125 C18.69511813 230.35913446 14.32976188 238.69254518 9.96484375 247.03125 C6.49931332 253.65298213 3.06135047 260.28887144 -0.375 266.92578125 C-5.06690411 275.98694072 -9.78732544 285.03230014 -14.54223633 294.06054688 C-16.94530887 298.6381693 -19.2857547 303.23895648 -21.56005859 307.88183594 C-25.05305156 315.0039346 -28.82665786 321.74920449 -33.3125 328.30078125 C-33.73515137 328.9256543 -34.15780273 329.55052734 -34.59326172 330.19433594 C-47.73885454 349.56727015 -62.79606916 366.87307002 -81.3125 381.30078125 C-82.25996094 382.07679688 -83.20742188 382.8528125 -84.18359375 383.65234375 C-105.90461299 401.08449932 -131.47098624 412.5548001 -157.15625 422.80859375 C-163.10442872 425.19252907 -168.89017533 427.78906937 -174.6640625 430.5703125 C-177.42587006 431.89861042 -180.21516674 433.14799308 -183.0234375 434.375 C-206.39803703 444.60068079 -228.3151584 457.13408183 -247.3125 474.30078125 C-247.87340332 474.8014209 -248.43430664 475.30206055 -249.01220703 475.81787109 C-255.51653749 481.63292851 -261.83324581 487.48744778 -267.3125 494.30078125 C-267.71146484 494.78740234 -268.11042969 495.27402344 -268.52148438 495.77539062 C-274.97696652 503.66333012 -280.86455751 511.75291239 -286.17675781 520.45263672 C-287.3452436 522.3540635 -288.54312845 524.23492153 -289.7421875 526.1171875 C-315.10446844 566.69981264 -323.07058819 615.16086391 -323.48828125 662.25 C-323.50034103 663.5184375 -323.51240082 664.786875 -323.52482605 666.09375 C-323.57307077 671.38273926 -323.62054896 676.67150167 -323.63842773 681.96069336 C-323.72684164 703.95399253 -324.92405182 724.14389612 -334.3125 744.30078125 C-334.83714844 745.48027344 -335.36179687 746.65976562 -335.90234375 747.875 C-340.01733808 756.67624671 -345.15145056 763.85205267 -351.3125 771.30078125 C-351.95300293 772.0892041 -351.95300293 772.0892041 -352.60644531 772.89355469 C-364.89508841 787.91300736 -382.36816411 798.95212401 -400.375 805.61328125 C-401.28499756 805.95117676 -402.19499512 806.28907227 -403.13256836 806.63720703 C-411.35718384 809.55845792 -419.66957118 811.24938822 -428.375 811.92578125 C-429.27347656 812.00054688 -430.17195313 812.0753125 -431.09765625 812.15234375 C-463.95514962 813.66945766 -493.03201774 804.50209687 -517.75 782.61328125 C-519.27746884 781.18283404 -520.79899113 779.74599098 -522.3125 778.30078125 C-522.92351562 777.75292969 -523.53453125 777.20507812 -524.1640625 776.640625 C-535.61466335 766.00045481 -544.37873624 750.42713181 -549.625 735.80078125 C-549.97050903 734.84220215 -549.97050903 734.84220215 -550.32299805 733.86425781 C-554.10260764 722.67383938 -555.76217779 711.58560049 -555.70068359 699.80395508 C-555.70594055 698.53520538 -555.71119751 697.26645569 -555.71661377 695.95925903 C-555.73012276 692.52288133 -555.72505603 689.08677821 -555.71547651 685.65039659 C-555.70778524 682.01982877 -555.71495216 678.38928168 -555.71963501 674.75871277 C-555.72506888 668.66063297 -555.71796732 662.56266271 -555.70361328 656.46459961 C-555.68732806 649.46637706 -555.69255473 642.46841739 -555.7090925 635.47020131 C-555.72281964 629.41359874 -555.72457179 623.35707415 -555.71677649 617.30046099 C-555.71215622 613.7045292 -555.7113149 610.10871979 -555.72138596 606.5127964 C-555.75848602 591.18704995 -555.45600352 576.34601869 -552.3125 561.30078125 C-552.07559448 560.16493088 -551.83868896 559.02908051 -551.59460449 557.85881042 C-551.0033509 555.15104574 -550.33903831 552.47861221 -549.625 549.80078125 C-549.37081299 548.84284668 -549.11662598 547.88491211 -548.85473633 546.89794922 C-540.15202468 515.43690424 -521.9673398 485.70819786 -498.3125 463.30078125 C-497.12140625 462.10775391 -497.12140625 462.10775391 -495.90625 460.890625 C-483.56257128 448.56553616 -470.30851514 439.24139835 -455.3125 430.30078125 C-453.71535156 429.33011719 -453.71535156 429.33011719 -452.0859375 428.33984375 C-436.62006745 419.17622519 -419.84694767 412.63487868 -403.2734375 405.7734375 C-394.2485928 402.03524106 -385.25477033 398.23270613 -376.3125 394.30078125 C-375.51537598 393.95225098 -374.71825195 393.6037207 -373.89697266 393.24462891 C-348.34008413 381.96474527 -325.9274163 366.36053058 -305.96435547 346.91015625 C-304.60170104 345.58254495 -303.22634319 344.26798555 -301.84765625 342.95703125 C-296.51647433 337.80531486 -291.87480212 332.13388553 -287.3125 326.30078125 C-286.62365723 325.42655518 -286.62365723 325.42655518 -285.92089844 324.53466797 C-266.48069484 299.7305286 -252.70898096 271.29079318 -238.37347412 243.36737061 C-235.30856588 237.39747312 -232.2411377 231.42886904 -229.17382812 225.46020508 C-228.39290712 223.94043015 -227.61214472 222.4205737 -226.83154297 220.90063477 C-222.107872 211.70374518 -217.3509538 202.52697738 -212.51000977 193.39111328 C-210.08769629 188.80852941 -207.73917102 184.19503669 -205.4375 179.55078125 C-201.82649674 172.26484701 -198.07418901 165.05698153 -194.30175781 157.85351562 C-190.24844935 150.10875636 -186.23334769 142.34492013 -182.23010254 134.57421875 C-170.17338257 111.17506289 -170.17338257 111.17506289 -164.54736328 100.62890625 C-163.18354531 98.05765909 -161.8408143 95.475813 -160.49609375 92.89453125 C-155.6470426 83.68444396 -150.58975396 74.81719908 -144.5 66.36328125 C-143.98526123 65.64841553 -143.47052246 64.9335498 -142.94018555 64.19702148 C-139.8774119 60.07517166 -136.57348953 56.42717724 -132.88989258 52.85229492 C-130.36160409 50.36548586 -128.14690694 47.6330775 -125.890625 44.90234375 C-124.3125 43.30078125 -124.3125 43.30078125 -121.3125 42.30078125 C-121.3125 41.64078125 -121.3125 40.98078125 -121.3125 40.30078125 C-119.28939953 38.49909958 -117.26579803 36.82806754 -115.125 35.17578125 C-114.48715576 34.68150635 -113.84931152 34.18723145 -113.19213867 33.67797852 C-107.16987082 29.08174316 -100.92071323 25.00807771 -94.3125 21.30078125 C-93.58869141 20.8944043 -92.86488281 20.48802734 -92.11914062 20.06933594 C-62.34449022 3.52649076 -33.62841372 -0.02312317 0 0 Z " fill="#072E02" transform="translate(712.3125,105.69921875)"/>
<path d="M0 0 C0.99128906 0.75667969 1.98257813 1.51335937 3.00390625 2.29296875 C8.64157064 6.74940822 13.60170819 11.31649305 18 17 C18.78117188 18.00675781 19.56234375 19.01351562 20.3671875 20.05078125 C37.72529031 43.05726134 44.49582896 68.79305086 44.40405273 97.31567383 C44.40977673 98.95911619 44.41674867 100.60255458 44.42485046 102.24598694 C44.44257477 106.65120809 44.44165302 111.05622782 44.43590808 115.4614737 C44.43278537 119.16603599 44.43894258 122.87056127 44.44494683 126.57511824 C44.45892288 135.32883828 44.45748929 144.08246059 44.44604492 152.83618164 C44.43457483 161.80669628 44.44863667 170.77691154 44.4754414 179.74738675 C44.49773727 187.50514736 44.50420465 195.26281496 44.49836498 203.02060527 C44.49502665 207.62932212 44.49719851 212.23784735 44.51461601 216.84653664 C44.63397521 251.77038198 42.22513305 283.13517084 16.61328125 309.453125 C13.26662571 312.71473848 9.92549458 315.47348487 6 318 C5.04609375 318.62261719 4.0921875 319.24523437 3.109375 319.88671875 C-10.91480418 328.77886135 -25.80677779 335.09515794 -41.15478516 341.26904297 C-84.47589028 358.5956015 -84.47589028 358.5956015 -124 383 C-124.81597656 383.57621094 -125.63195312 384.15242188 -126.47265625 384.74609375 C-132.2987305 388.87325386 -137.89145912 393.25771943 -143.4375 397.75 C-144.12408691 398.30510254 -144.81067383 398.86020508 -145.51806641 399.43212891 C-148.25548428 401.66679711 -150.86894561 403.86654695 -153.34765625 406.390625 C-155 408 -155 408 -157 408 C-157.37125 408.86625 -157.37125 408.86625 -157.75 409.75 C-159.18299988 412.32939979 -160.78424676 414.06121592 -163 416 C-163.66 416 -164.32 416 -165 416 C-165.2475 416.56976562 -165.495 417.13953125 -165.75 417.7265625 C-167.19821295 420.36049981 -168.9232254 422.20180372 -171 424.375 C-175.39914635 429.14550286 -179.13735327 434.1979317 -182.8125 439.52880859 C-183.85441996 441.03366495 -184.92445388 442.51899007 -186 444 C-186.33 444 -186.66 444 -187 444 C-187.17358861 398.87780692 -187.33622412 353.75558578 -187.48431293 308.63330143 C-187.50183316 303.29777035 -187.51944343 297.96223958 -187.53710938 292.62670898 C-187.54062461 291.56456803 -187.54413985 290.50242708 -187.5477616 289.40810003 C-187.60478205 272.24393565 -187.6690844 255.07980596 -187.736111 237.91567806 C-187.8048 220.28401557 -187.86558668 202.65233839 -187.91914403 185.02062339 C-187.95239758 174.15410374 -187.99170459 163.28764148 -188.03892837 152.42117342 C-188.0707851 144.95443559 -188.09491781 137.48769681 -188.11317255 130.02091346 C-188.12390283 125.72267902 -188.13785001 121.42452388 -188.16103554 117.12633705 C-188.41120062 69.53655944 -188.41120062 69.53655944 -181 50 C-180.69191406 49.17757812 -180.38382813 48.35515625 -180.06640625 47.5078125 C-169.20504471 21.1509085 -148.6825733 -0.67431574 -123 -13 C-118.39666375 -14.89752083 -113.74316737 -16.49185698 -109 -18 C-108.1853125 -18.29648438 -107.370625 -18.59296875 -106.53125 -18.8984375 C-72.05973721 -30.82180322 -28.39745568 -21.74579939 0 0 Z " fill="#072E02" transform="translate(344,129)"/>
<path d="M0 0 C0.8146875 0.28488281 1.629375 0.56976562 2.46875 0.86328125 C14.74456788 5.38699985 25.2373419 12.3893651 35 21 C35.84175781 21.72058594 36.68351563 22.44117188 37.55078125 23.18359375 C46.63730157 31.11133543 54.47328652 39.65034896 60.97021484 49.828125 C67.6543318 60.27316318 74.68841852 70.5013562 81.62548828 80.77954102 C82.70210594 82.3753751 83.77796176 83.97172343 84.85302734 85.56860352 C91.1469698 94.9171008 97.5031349 104.21256475 104.03582764 113.39628601 C107.39066612 118.11353046 110.63066121 122.89576283 113.8203125 127.7265625 C123.28881833 141.9462899 133.07103482 155.96508735 142.77734375 170.0234375 C147.7109727 177.17521359 152.60510453 184.34866653 157.38891602 191.60180664 C160.23532691 195.9038036 163.18328258 200.12873691 166.1484375 204.34960938 C169.26427553 208.80972774 172.31735002 213.31238126 175.375 217.8125 C179.2748337 223.5507087 183.18969445 229.27640279 187.15625 234.96875 C193.28177753 243.78317024 199.18753035 252.74594342 205.125 261.6875 C214.24935458 275.49990902 214.24935458 275.49990902 223.68334961 289.10083008 C228.25883627 295.7006281 229.35492943 301.1853985 229.4375 309.125 C229.44773193 309.88941406 229.45796387 310.65382813 229.46850586 311.44140625 C229.3395646 319.76578166 226.15724703 326.92135638 220.140625 332.82421875 C204.64773446 346.71540068 183.67105012 343.15067183 164.05078125 343.1328125 C161.4258778 343.13348756 158.80097441 343.13445927 156.17607117 343.13571167 C150.6900481 343.13752171 145.20403858 343.13515921 139.71801758 343.13037109 C133.42878417 343.12494437 127.13958328 343.1266843 120.85035068 343.1321975 C114.74001922 343.1373341 108.62970186 343.13672419 102.51936913 343.13381577 C99.94773542 343.13315525 97.37610087 343.13394379 94.80446815 343.13629532 C71.77845867 343.1527277 71.77845867 343.1527277 60.28588867 342.56982422 C59.55396207 342.53319735 58.82203547 342.49657047 58.06792927 342.45883369 C29.80900929 340.79438506 0.78600433 328.90190436 -21 311 C-21.82806152 310.32203369 -21.82806152 310.32203369 -22.67285156 309.63037109 C-28.70446111 304.67281428 -34.65401944 299.70503895 -40 294 C-40 293.34 -40 292.68 -40 292 C-40.99 291.67 -41.98 291.34 -43 291 C-55.45126316 277.70417441 -64.95294628 261.50011008 -72.90551758 245.20385742 C-76.61941206 237.63213327 -80.76647437 230.30870224 -84.8984375 222.95947266 C-88.69784166 216.20104673 -92.32033005 209.38930648 -95.75 202.4375 C-99.10233552 195.64315073 -102.72149958 189.02632877 -106.43310547 182.42260742 C-108.68236896 178.40878332 -110.85468646 174.38570066 -112.875 170.25 C-115.57461566 164.7454912 -118.49067512 159.37466099 -121.4375 154 C-130.69025917 137.12206484 -139.7798012 120.1548122 -148.75 103.125 C-149.14396973 102.37710205 -149.53793945 101.6292041 -149.94384766 100.85864258 C-150.96779305 98.90843228 -151.98478247 96.95476338 -153 95 C-153.54785156 93.95585938 -154.09570312 92.91171875 -154.66015625 91.8359375 C-160.45244064 79.57588367 -160.71889838 65.88293878 -156.33203125 53.171875 C-151.46296535 41.57750106 -144.66783646 32.50914302 -134.5625 25.125 C-133.86439209 24.6103418 -133.16628418 24.09568359 -132.44702148 23.56542969 C-93.91029789 -4.42810507 -45.84585443 -17.19219541 0 0 Z " fill="#072E02" transform="translate(638,575)"/>
<path d="M0 0 C0.66 0.33 1.32 0.66 2 1 C-6.25 9.25 -14.5 17.5 -23 26 C-23.66 25.67 -24.32 25.34 -25 25 C-24.55269531 24.56429687 -24.10539063 24.12859375 -23.64453125 23.6796875 C-20.79624253 20.87391056 -18.08707804 18.10717297 -15.5625 15 C-12.89823234 11.88085738 -10.05119734 9.33340683 -6.9375 6.6796875 C-4.49654333 4.56353555 -2.24804455 2.31829594 0 0 Z " fill="#F0F2F0" transform="translate(196,529)"/>
</svg>
